<svg width="40" height="40" viewBox="0 0 40 40" fill="none" xmlns="http://www.w3.org/2000/svg">
<path d="M24.1054 0.0201719L15.7381 0H15.7341C6.91089 0 0 6.91291 0 15.7381C0 24.0045 6.42676 30.274 15.0583 30.6048V38.3266C15.0583 38.5444 15.1471 38.9035 15.3004 39.1395C15.5868 39.5934 16.075 39.8395 16.5752 39.8395C16.8536 39.8395 17.134 39.7628 17.3862 39.6015C17.9187 39.2626 30.4434 31.2503 33.7012 28.4948C37.5379 25.2471 39.8334 20.4866 39.8395 15.7623V15.728C39.8274 6.91896 32.9205 0.0201715 24.1054 0.0181543V0.0201719ZM31.7445 26.1871C29.457 28.1236 21.9369 33.0557 18.0841 35.553V29.1242C18.0841 28.2891 17.4083 27.6113 16.5712 27.6113H15.7724C8.38949 27.6113 3.0278 22.6167 3.0278 15.7381C3.0278 8.60936 8.61138 3.02578 15.7361 3.02578L24.1014 3.04595H24.1054C31.2301 3.04595 36.8137 8.6255 36.8177 15.7462C36.8117 19.599 34.9175 23.5002 31.7465 26.1871H31.7445Z" fill="#8899A6"/>
</svg>
