<svg width="70" height="63" viewBox="0 0 70 63" fill="none" xmlns="http://www.w3.org/2000/svg">
<path d="M35.1319 5.78372C19.9402 -7.50363 0.624136 4.17102 0.307395 19.9979C0.226678 24.0314 1.39101 27.9604 3.70865 31.5826H18.7309L21.4029 27.1291C22.1787 25.8362 24.0563 25.7945 24.8762 27.0835L30.5137 35.9423L38.7314 18.5943C39.448 17.0805 41.5838 17.0325 42.3742 18.5003L49.4185 31.5826H66.5552C79.2496 11.7423 54.1612 -10.8598 35.1319 5.78372Z" fill="white"/>
<path d="M46.4014 34.593L40.6933 23.9922L32.6215 41.0325C31.9348 42.4823 29.9149 42.6082 29.0537 41.2547L23.2048 32.0637L21.6377 34.6755C21.2687 35.2905 20.6042 35.6667 19.887 35.6667H6.9386C7.3445 36.0915 5.18121 33.9326 33.6919 62.2956C34.4882 63.0879 35.7754 63.088 36.5718 62.2956C64.6438 34.369 62.92 36.0907 63.3251 35.6667H48.1991C47.4479 35.6668 46.7575 35.2544 46.4014 34.593Z" fill="white"/>
</svg>
