<svg width="67" height="67" viewBox="0 0 67 67" fill="none" xmlns="http://www.w3.org/2000/svg">
<path d="M27.9393 35.3082L32.0709 38.0626C32.3616 38.2571 32.7034 38.3609 33.0531 38.3609C33.4028 38.3609 33.7446 38.2571 34.0352 38.0626L38.1669 35.3082C38.4096 35.1467 38.6086 34.9278 38.7462 34.6708C38.8837 34.4139 38.9556 34.1269 38.9554 33.8354V24.79H36.2002C35.7852 25.834 35.0665 26.7295 34.1373 27.3608C33.208 27.9921 32.1107 28.3302 30.9873 28.3314H27.1508V33.8354C27.1506 34.1269 27.2224 34.4139 27.36 34.6708C27.4976 34.9278 27.6966 35.1467 27.9393 35.3082Z" fill="white"/>
<path d="M34.2336 22.7242V18.8877H28.0361C27.1755 18.8887 26.3503 19.231 25.7417 19.8396C25.1332 20.4482 24.7908 21.2733 24.7899 22.134V25.9705H30.9873C31.848 25.9695 32.6731 25.6272 33.2817 25.0186C33.8903 24.41 34.2326 23.5849 34.2336 22.7242Z" fill="white"/>
<path d="M37.4729 42.1723L36.1367 39.5L35.3449 40.0278C34.6667 40.4817 33.8691 40.724 33.0531 40.724C32.2371 40.724 31.4395 40.4817 30.7614 40.0278L29.9696 39.5L28.6333 42.1723L33.0531 45.7081L37.4729 42.1723Z" fill="white"/>
<path d="M40.1359 21.3069C40.135 20.8978 39.9928 20.5016 39.7334 20.1852C39.4741 19.8688 39.1134 19.6517 38.7125 19.5706L36.5945 19.1465V22.4283H40.1359V21.3069Z" fill="white"/>
<path d="M54.3015 6.42578V10.1018L59.2028 8.26377L54.3015 6.42578Z" fill="white"/>
<path d="M55.482 21.2484C57.5833 21.2484 59.6374 20.6253 61.3845 19.4579C63.1316 18.2905 64.4934 16.6312 65.2975 14.6899C66.1016 12.7486 66.312 10.6124 65.9021 8.55153C65.4921 6.49064 64.4803 4.59759 62.9944 3.11176C61.5086 1.62594 59.6156 0.614083 57.5547 0.204146C55.4938 -0.205791 53.3576 0.00460325 51.4163 0.808725C49.475 1.61285 47.8157 2.97458 46.6483 4.72172C45.4809 6.46886 44.8578 8.52294 44.8578 10.6242C44.861 13.441 45.9813 16.1414 47.973 18.1332C49.9648 20.1249 52.6653 21.2453 55.482 21.2484ZM51.9406 4.72188C51.9406 4.53113 51.9868 4.34322 52.0753 4.17424C52.1638 4.00526 52.2919 3.86023 52.4487 3.75158C52.6054 3.64293 52.7862 3.57388 52.9755 3.55036C53.1648 3.52684 53.357 3.54954 53.5356 3.61651L62.9793 7.15792C63.2043 7.24227 63.3983 7.3933 63.5352 7.59083C63.6721 7.78835 63.7454 8.02295 63.7454 8.26328C63.7454 8.50361 63.6721 8.73821 63.5352 8.93573C63.3983 9.13325 63.2043 9.28428 62.9793 9.36864L54.3015 12.6227V17.707H51.9406V4.72188Z" fill="white"/>
<path d="M38.371 44.4766L35.5764 46.7122L39.4887 47.8301L38.371 44.4766Z" fill="white"/>
<path d="M25.0711 45.0029L20.7732 47.3907C22.6119 49.6866 23.6124 52.541 23.6094 55.4824H42.4969C42.4939 52.541 43.4944 49.6866 45.3331 47.3907L41.0352 45.0029L42.437 49.2067C42.5049 49.4106 42.516 49.6291 42.4689 49.8388C42.4218 50.0484 42.3183 50.2413 42.1697 50.3965C42.0211 50.5517 41.833 50.6634 41.6255 50.7195C41.4181 50.7757 41.1993 50.7741 40.9927 50.7151L33.0532 48.4468L25.1145 50.7151C24.9079 50.7741 24.6891 50.7757 24.4817 50.7195C24.2742 50.6634 24.0861 50.5517 23.9375 50.3965C23.7889 50.2413 23.6854 50.0484 23.6383 49.8388C23.5912 49.6291 23.6022 49.4106 23.6702 49.2067L25.0711 45.0029Z" fill="white"/>
<path d="M10.6243 23.6099C8.85038 23.612 7.09512 23.2484 5.46797 22.5421C2.89927 29.3144 2.89927 36.7929 5.46797 43.5653C7.70174 42.598 10.1627 42.2789 12.5693 42.6446C14.9759 43.0102 17.231 44.0457 19.0767 45.6327L21.8557 44.0888L26.2582 41.6429L27.99 38.1797L26.6298 37.273C26.0634 36.8963 25.5989 36.3853 25.2779 35.7856C24.9569 35.1858 24.7892 34.516 24.7899 33.8357V28.3318H23.6094C23.2963 28.3318 22.9961 28.2074 22.7747 27.9861C22.5533 27.7647 22.4289 27.4644 22.4289 27.1513V22.1344C22.4306 20.6477 23.0219 19.2225 24.0731 18.1713C25.1243 17.1201 26.5495 16.5288 28.0362 16.5271H35.4141H35.4336H35.4461H35.4609H35.4789H35.489L35.5125 16.5288H35.5183L35.5478 16.5317C35.5864 16.536 35.6247 16.5422 35.6627 16.5505L39.1746 17.253C40.111 17.4422 40.9533 17.9492 41.5587 18.6882C42.1642 19.4272 42.4956 20.3527 42.4969 21.308V23.6099C42.4969 23.923 42.3725 24.2233 42.1511 24.4447C41.9298 24.666 41.6295 24.7904 41.3164 24.7904V33.8357C41.3172 34.5161 41.1496 35.1862 40.8286 35.7861C40.5076 36.3859 40.0431 36.8971 39.4765 37.2739L38.1163 38.1806L39.8481 41.6438L44.2506 44.0897L47.0296 45.6336C48.8753 44.0466 51.1304 43.011 53.537 42.6454C55.9436 42.2798 58.4045 42.5989 60.6383 43.5662C63.207 36.7938 63.207 29.3153 60.6383 22.5429C58.2494 23.5765 55.605 23.8684 53.0483 23.3805C50.4915 22.8927 48.1403 21.6477 46.2999 19.8071C44.4594 17.9665 43.2145 15.6153 42.7268 13.0585C42.2391 10.5017 42.531 7.85735 43.5648 5.46852C36.7924 2.89982 29.3139 2.89982 22.5415 5.46852C23.3963 7.44412 23.7465 9.60123 23.5607 11.7458C23.3749 13.8903 22.6588 15.9551 21.4769 17.7542C20.2951 19.5533 18.6845 21.0304 16.7901 22.0526C14.8957 23.0747 12.7768 23.6099 10.6243 23.6099Z" fill="white"/>
<path d="M51.611 60.2033H59.3531L60.9269 55.4814H50.0371L51.611 60.2033Z" fill="white"/>
<path d="M23.3942 57.8428C23.217 58.8039 22.9309 59.7417 22.5415 60.6381C29.3139 63.2068 36.7924 63.2068 43.5648 60.6381C43.1753 59.7417 42.8892 58.8039 42.712 57.8428H23.3942Z" fill="white"/>
<path d="M10.6242 44.8574C8.52294 44.8574 6.46886 45.4805 4.72172 46.6479C2.97458 47.8153 1.61285 49.4746 0.808725 51.4159C0.00460325 53.3572 -0.205791 55.4934 0.204146 57.5543C0.614083 59.6152 1.62594 61.5083 3.11176 62.9941C4.59759 64.4799 6.49064 65.4918 8.55153 65.9017C10.6124 66.3116 12.7486 66.1012 14.6899 65.2971C16.6312 64.493 18.2905 63.1313 19.4579 61.3841C20.6253 59.637 21.2484 57.5829 21.2484 55.4816C21.2453 52.6649 20.1249 49.9644 18.1332 47.9727C16.1414 45.9809 13.441 44.8606 10.6242 44.8574ZM18.8019 53.055C18.8692 53.2675 18.875 53.4947 18.8186 53.7104C18.7621 53.926 18.6458 54.1213 18.483 54.2736L15.4182 57.1406L16.1395 61.1764C16.1781 61.3922 16.1558 61.6146 16.0751 61.8185C15.9944 62.0224 15.8585 62.1998 15.6826 62.3308C15.5067 62.4618 15.2979 62.5412 15.0794 62.5601C14.8609 62.5791 14.6415 62.5368 14.4457 62.438L10.6102 60.5026L6.77471 62.438C6.57893 62.5367 6.35952 62.579 6.14106 62.56C5.92261 62.5411 5.71376 62.4617 5.53791 62.3307C5.36206 62.1997 5.22617 62.0223 5.14547 61.8184C5.06478 61.6145 5.04246 61.3922 5.08103 61.1764L5.80215 57.1406L2.73751 54.2736C2.57475 54.1213 2.45843 53.9261 2.402 53.7105C2.34556 53.4948 2.35132 53.2677 2.41861 53.0552C2.4859 52.8427 2.61196 52.6536 2.78222 52.5098C2.95248 52.3659 3.15998 52.2733 3.38072 52.2424L7.65696 51.646L9.56046 47.9443C9.65968 47.7514 9.81015 47.5895 9.99535 47.4765C10.1805 47.3635 10.3933 47.3037 10.6103 47.3037C10.8272 47.3037 11.04 47.3635 11.2252 47.4765C11.4104 47.5895 11.5609 47.7514 11.6601 47.9443L13.5636 51.6458L17.8397 52.2423C18.0604 52.2731 18.268 52.3658 18.4382 52.5096C18.6085 52.6534 18.7346 52.8425 18.8019 53.055Z" fill="white"/>
<path d="M55.482 44.8574C53.3807 44.8574 51.3266 45.4805 49.5795 46.6479C47.8324 47.8153 46.4706 49.4746 45.6665 51.4159C44.8624 53.3572 44.652 55.4934 45.0619 57.5543C45.4719 59.6152 46.4837 61.5083 47.9696 62.9941C49.4554 64.4799 51.3484 65.4918 53.4093 65.9017C55.4702 66.3116 57.6064 66.1012 59.5477 65.2971C61.489 64.493 63.1483 63.1313 64.3157 61.3841C65.4831 59.637 66.1062 57.5829 66.1062 55.4816C66.103 52.6649 64.9827 49.9644 62.991 47.9727C60.9992 45.9809 58.2987 44.8606 55.482 44.8574ZM63.5225 53.6109C63.6318 53.7627 63.7035 53.9382 63.7317 54.1231C63.7599 54.308 63.7438 54.497 63.6848 54.6745L61.3238 61.7573C61.2455 61.9923 61.0952 62.1968 60.8941 62.3417C60.6931 62.4865 60.4516 62.5645 60.2039 62.5644H50.7601C50.5124 62.5645 50.2709 62.4865 50.0699 62.3417C49.8689 62.1968 49.7185 61.9923 49.6402 61.7573L47.2792 54.6745C47.2201 54.497 47.2039 54.3081 47.2321 54.1231C47.2604 53.9382 47.3321 53.7627 47.4415 53.6109C47.5509 53.4592 47.6947 53.3356 47.8612 53.2503C48.0278 53.1651 48.2121 53.1207 48.3992 53.1207H49.961L52.025 47.9604L54.2171 48.8372L52.5037 53.1207H58.4603L56.7469 48.8372L58.939 47.9604L61.003 53.1207H62.5648C62.7519 53.1207 62.9362 53.1651 63.1027 53.2504C63.2692 53.3356 63.4131 53.4592 63.5225 53.6109Z" fill="white"/>
<path d="M10.6242 21.2484C12.7255 21.2484 14.7796 20.6253 16.5267 19.4579C18.2738 18.2905 19.6356 16.6312 20.4397 14.6899C21.2438 12.7486 21.4542 10.6124 21.0443 8.55153C20.6343 6.49064 19.6225 4.59759 18.1367 3.11176C16.6508 1.62594 14.7578 0.614083 12.6969 0.204146C10.636 -0.205791 8.49982 0.00460325 6.5585 0.808725C4.61718 1.61285 2.95791 2.97458 1.7905 4.72172C0.623099 6.46886 0 8.52294 0 10.6242C0.0031635 13.441 1.12351 16.1414 3.11525 18.1332C5.10699 20.1249 7.80747 21.2453 10.6242 21.2484ZM5.90234 14.1656H11.8047C12.1178 14.1656 12.418 14.0412 12.6394 13.8199C12.8608 13.5985 12.9851 13.2982 12.9851 12.9851C12.9851 12.6721 12.8608 12.3718 12.6394 12.1504C12.418 11.9291 12.1178 11.8047 11.8047 11.8047H9.44374C8.5045 11.8047 7.60373 11.4316 6.93959 10.7674C6.27545 10.1033 5.90234 9.20252 5.90234 8.26328C5.90234 7.32404 6.27545 6.42327 6.93959 5.75913C7.60373 5.09499 8.5045 4.72188 9.44374 4.72188V3.54141H11.8047V4.72188H15.3461V7.08281H9.44374C9.13066 7.08281 8.83041 7.20718 8.60903 7.42856C8.38764 7.64994 8.26327 7.9502 8.26327 8.26328C8.26327 8.57636 8.38764 8.87661 8.60903 9.09799C8.83041 9.31938 9.13066 9.44375 9.44374 9.44375H11.8047C12.7439 9.44375 13.6447 9.81686 14.3088 10.481C14.973 11.1451 15.3461 12.0459 15.3461 12.9851C15.3461 13.9244 14.973 14.8252 14.3088 15.4893C13.6447 16.1534 12.7439 16.5266 11.8047 16.5266V17.707H9.44374V16.5266H5.90234V14.1656Z" fill="white"/>
<path d="M11.744 53.2712L10.6102 51.0664L9.47635 53.2712C9.38982 53.4395 9.2641 53.5845 9.10978 53.6941C8.95547 53.8036 8.77709 53.8744 8.58967 53.9006L6.15643 54.2399L7.88287 55.8556C8.02664 55.9901 8.13449 56.1584 8.1966 56.3452C8.25871 56.532 8.27311 56.7314 8.23848 56.9252L7.8206 59.2665L10.0782 58.1272C10.2431 58.044 10.4253 58.0007 10.61 58.0007C10.7947 58.0007 10.9768 58.044 11.1417 58.1272L13.3993 59.2665L12.981 56.9252C12.9464 56.7314 12.9607 56.532 13.0228 56.3452C13.0849 56.1584 13.1927 55.9901 13.3365 55.8556L15.0629 54.2399L12.6297 53.9006C12.4424 53.8743 12.2643 53.8034 12.1101 53.6938C11.956 53.5843 11.8305 53.4394 11.744 53.2712Z" fill="white"/>
<path d="M26.6175 47.8301L30.5299 46.7122L27.7352 44.4766L26.6175 47.8301Z" fill="white"/>
</svg>
