<svg width="41" height="39" viewBox="0 0 41 39" fill="none" xmlns="http://www.w3.org/2000/svg">
<path d="M20.2728 38.1531H20.2445C15.0341 38.0563 0 24.4725 0 11.6069C0 5.42624 5.0934 0 10.8989 0C15.5182 0 18.6247 3.18716 20.2707 5.50692C21.9127 3.19119 25.0192 0 29.6406 0C35.4501 0 40.5415 5.42624 40.5415 11.6089C40.5415 24.4705 25.5053 38.0543 20.2949 38.1491H20.2728V38.1531ZM10.9009 3.0278C6.70514 3.0278 3.0278 7.03797 3.0278 11.6109C3.0278 23.1896 17.2167 35.0023 20.2748 35.1273C23.3369 35.0023 37.5217 23.1916 37.5217 11.6109C37.5217 7.03797 33.8444 3.0278 29.6486 3.0278C24.5492 3.0278 21.7009 8.95027 21.6767 9.00876C21.2128 10.1424 19.3448 10.1424 18.8789 9.00876C18.8506 8.94825 16.0044 3.0278 10.9029 3.0278H10.9009Z" fill="#8899A6"/>
</svg>
