<svg width="74" height="75" viewBox="0 0 74 75" fill="none" xmlns="http://www.w3.org/2000/svg">
<path d="M12.1119 37.5136C12.1119 26.9322 18.5744 17.8531 27.7085 14.1141L32.3692 4.62598C16.4809 6.91362 4.22235 20.7887 4.22235 37.5136C4.22235 52.73 14.3695 65.5888 28.1653 69.5069L29.0618 61.4223C19.2188 58.0564 12.1119 48.6105 12.1119 37.5136Z" fill="white"/>
<path d="M69.7776 37.5133C69.7776 22.2999 59.6349 9.44357 45.8437 5.52246L44.9271 13.6011C54.7757 16.9637 61.8881 26.4124 61.8881 37.5133C61.8881 48.0329 55.5008 57.0676 46.451 60.8467L41.6611 70.3963C57.5345 68.0957 69.7776 54.2274 69.7776 37.5133Z" fill="white"/>
<path d="M55.7614 33.4876C56.072 32.8681 56.0427 32.1877 55.6839 31.5955C55.3255 31.003 54.6889 30.7669 54.003 30.7669H39.0077L42.2358 2.32388C42.3457 1.35959 41.756 0.360576 40.8373 0.0842093C40.6478 0.0272368 40.4557 0 40.2661 0C39.5378 0 38.8494 0.420047 38.5104 1.10996L18.2312 42.409C17.9269 43.0285 17.9604 43.8533 18.3199 44.442C18.6796 45.0305 19.3137 45.5098 19.9969 45.5098H34.7945L31.7609 72.8823C31.6549 73.8428 32.242 74.6507 33.1557 74.9275C33.3433 74.9845 33.5334 75 33.721 75C34.4478 75 35.1362 74.5909 35.4796 73.906L55.7614 33.4876Z" fill="white"/>
</svg>
