<svg width="49" height="34" viewBox="0 0 49 34" fill="none" xmlns="http://www.w3.org/2000/svg">
<path d="M47.9254 23.7433C47.3364 23.1523 46.3782 23.1523 45.7872 23.7433L41.309 28.2215V7.56547C41.309 3.39392 37.9141 0.00100902 33.7445 0.00100902H21.944C21.1089 0.00100902 20.4311 0.678784 20.4311 1.5139C20.4311 2.34902 21.1089 3.02679 21.944 3.02679H33.7445C36.2459 3.02679 38.2832 5.06415 38.2832 7.56547V28.2215L33.8051 23.7433C33.214 23.1523 32.2559 23.1523 31.6668 23.7433C31.0778 24.3344 31.0738 25.2925 31.6668 25.8815L38.727 32.9417C39.0195 33.2382 39.4068 33.3855 39.7961 33.3855C40.1854 33.3855 40.5687 33.2402 40.8652 32.9417L47.9254 25.8815C48.5184 25.2925 48.5184 24.3344 47.9254 23.7433ZM26.4221 30.3597H14.6216C12.1203 30.3597 10.0829 28.3223 10.0829 25.821V5.16501L14.5611 9.64317C14.8596 9.9397 15.2469 10.087 15.6342 10.087C16.0215 10.087 16.4088 9.9397 16.7033 9.64317C17.2944 9.05213 17.2944 8.09397 16.7033 7.50495L9.64317 0.44479C9.05213 -0.148263 8.09397 -0.148263 7.50495 0.44479L0.44479 7.50495C-0.148263 8.09397 -0.148263 9.05213 0.44479 9.64317C1.03784 10.2342 1.99197 10.2342 2.58301 9.64317L7.06117 5.16501V25.821C7.06117 29.9926 10.4561 33.3855 14.6256 33.3855H26.4262C27.2613 33.3855 27.9391 32.7077 27.9391 31.8726C27.9391 31.0375 27.2593 30.3597 26.4262 30.3597H26.4221Z" fill="#8899A6"/>
</svg>
