<svg width="41" height="40" viewBox="0 0 41 40" fill="none" xmlns="http://www.w3.org/2000/svg">
<path d="M31.327 10.5292L21.241 0.443277C20.65 -0.147759 19.6918 -0.147759 19.1028 0.443277L9.01687 10.5292C8.42382 11.1203 8.42382 12.0784 9.01687 12.6674C9.60993 13.2565 10.5641 13.2605 11.1551 12.6674L18.659 5.1635V25.7187C18.659 26.5538 19.3368 27.2315 20.1719 27.2315C21.007 27.2315 21.6848 26.5538 21.6848 25.7187V5.1635L29.1888 12.6674C29.4833 12.964 29.8706 13.1112 30.2579 13.1112C30.6452 13.1112 31.0325 12.966 31.327 12.6674C31.918 12.0764 31.918 11.1203 31.327 10.5292Z" fill="#8899A6"/>
<path d="M35.7204 39.726H4.6234C2.07367 39.726 0 37.6523 0 35.1026V23.7014C0 22.8663 0.677775 22.1885 1.51289 22.1885C2.34801 22.1885 3.02578 22.8663 3.02578 23.7014V35.1026C3.02578 35.9841 3.74188 36.7002 4.6234 36.7002H35.7204C36.6019 36.7002 37.318 35.9841 37.318 35.1026V23.7014C37.318 22.8663 37.9958 22.1885 38.8309 22.1885C39.666 22.1885 40.3438 22.8663 40.3438 23.7014V35.1026C40.3438 37.6523 38.2701 39.726 35.7204 39.726Z" fill="#8899A6"/>
</svg>
