<svg width="79" height="79" viewBox="0 0 79 79" fill="none" xmlns="http://www.w3.org/2000/svg">
<g clip-path="url(#clip0)">
<path d="M2.20629 45.2093L7.36156 46.0542C8.17605 50.0017 9.73477 53.7582 11.9544 57.1226L8.9015 61.3835C8.26806 62.2458 8.27894 63.4226 8.92832 64.2731C9.6981 65.2141 10.5161 66.1146 11.3788 66.9712C12.2491 67.8429 13.1463 68.6463 14.0702 69.4229C14.9213 70.0736 16.0996 70.0845 16.9626 69.4497L21.2207 66.3954C24.5819 68.6163 28.3357 70.1761 32.2811 70.991L33.1247 76.1503C33.2854 77.2057 34.1275 78.026 35.1867 78.1588C35.9205 78.2419 36.6597 78.2927 37.4149 78.3302C37.7817 78.3481 38.1399 78.2157 38.4067 77.9635C38.6735 77.7113 38.8261 77.3612 38.8289 76.9939V66.263C38.825 65.5396 38.2504 64.9484 37.5274 64.9239C23.9959 64.2224 13.3841 53.0462 13.3841 39.4965C13.3841 25.9469 23.9959 14.7707 37.5274 14.0692C38.2504 14.0447 38.825 13.4536 38.8289 12.7301V2.0085C38.8271 1.6415 38.6756 1.29108 38.4094 1.03825C38.1432 0.78542 37.7854 0.65233 37.4188 0.669436C36.6663 0.700667 35.9223 0.753411 35.1866 0.827407C34.1271 0.971772 33.2884 1.79532 33.1246 2.85201L32.2809 8.0113C28.3357 8.82734 24.582 10.3874 21.2206 12.6082L16.9625 9.55253C16.0995 8.91766 14.9211 8.92855 14.0701 9.57935C13.1317 10.3502 12.2334 11.1685 11.3786 12.0311C10.5095 12.8815 9.69123 13.7824 8.92819 14.7292C8.27609 15.5807 8.26521 16.7607 8.90137 17.6241L11.9543 21.885C9.73516 25.2482 8.17643 29.0031 7.36143 32.9493L2.20617 33.793C1.15051 33.9542 0.330332 34.7968 0.19763 35.8564C-0.0659582 38.2595 -0.0659582 40.6841 0.19763 43.0871C0.316725 44.1643 1.13717 45.0312 2.20629 45.2093Z" fill="white"/>
<path d="M37.5484 19.4561C26.9697 20.1263 18.7328 28.9015 18.7328 39.5013C18.7328 50.1011 26.9699 58.8764 37.5484 59.5465C37.885 59.5605 38.2126 59.4357 38.4545 59.2013C38.6965 58.9668 38.8316 58.6434 38.8285 58.3066V20.6961C38.8317 20.3591 38.6966 20.0358 38.4545 19.8014C38.2126 19.5669 37.885 19.4421 37.5484 19.4561Z" fill="white"/>
<path d="M48.2017 20.755H41.5067V23.433H48.2017C50.4176 23.4264 52.2122 21.6318 52.2188 19.4159V11.1354C54.0634 10.4833 55.1698 8.59712 54.839 6.66881C54.5082 4.74049 52.8363 3.33105 50.8797 3.33105C48.9233 3.33105 47.2513 4.74049 46.9205 6.66881C46.5896 8.59712 47.6961 10.4833 49.5407 11.1354V19.4159C49.5407 20.1555 48.9412 20.755 48.2017 20.755Z" fill="white"/>
<path d="M41.5065 28.7895H54.8968C55.6364 28.7895 56.2359 28.19 56.2359 27.4504C56.2359 26.7108 55.6364 26.1113 54.8968 26.1113H41.5065V28.7895Z" fill="white"/>
<path d="M41.5065 58.2473H48.2016C48.9412 58.2473 49.5407 58.8468 49.5407 59.5864V67.8669C47.6961 68.519 46.5896 70.4052 46.9205 72.3335C47.2513 74.2619 48.9232 75.6713 50.8797 75.6713C52.8362 75.6713 54.5082 74.2619 54.839 72.3335C55.1699 70.4052 54.0634 68.519 52.2188 67.8669V59.5864C52.2122 57.3705 50.4176 55.5759 48.2017 55.5693H41.5067V58.2473H41.5065Z" fill="white"/>
<path d="M61.5919 44.8574H41.5065V47.5354H61.5919C62.3315 47.5354 62.9309 48.1349 62.9309 48.8745V55.816C61.0863 56.4682 59.9799 58.3544 60.3107 60.2827C60.6416 62.211 62.3134 63.6204 64.27 63.6204C66.2265 63.6204 67.8984 62.211 68.2293 60.2827C68.5601 58.3544 67.4537 56.4682 65.6091 55.816V48.8745C65.6023 46.6586 63.8078 44.864 61.5919 44.8574Z" fill="white"/>
<path d="M74.9822 35.4844C73.2859 35.4914 71.7768 36.5631 71.2114 38.1624H41.5065V40.8404H71.2114C71.8957 42.7613 73.9125 43.863 75.8986 43.4006C77.8847 42.9382 79.2076 41.0591 78.973 39.0335C78.7386 37.008 77.0213 35.4808 74.9822 35.4844Z" fill="white"/>
<path d="M56.2359 51.552C56.2359 50.8124 55.6364 50.2129 54.8968 50.2129H41.5065V52.8909H54.8968C55.6364 52.891 56.2359 52.2915 56.2359 51.552Z" fill="white"/>
<path d="M65.6089 30.1278V23.1862C67.4536 22.5341 68.56 20.6479 68.2292 18.7196C67.8983 16.7913 66.2265 15.3818 64.2699 15.3818C62.3134 15.3818 60.6415 16.7913 60.3106 18.7196C59.9798 20.6479 61.0862 22.5341 62.9308 23.1862V30.1278C62.9308 30.8673 62.3313 31.4668 61.5918 31.4668H41.5064V34.1448H61.5918C63.8078 34.1381 65.6023 32.3435 65.6089 30.1278Z" fill="white"/>
</g>
<defs>
<clipPath id="clip0">
<rect width="79" height="79" fill="white"/>
</clipPath>
</defs>
</svg>
