<svg width="95" height="83" viewBox="0 0 95 83" fill="none" xmlns="http://www.w3.org/2000/svg">
<path d="M94.9667 9.53333C91.6667 11.3667 87.6333 12.4667 83.9667 12.8333C88 10.2667 90.9333 6.23333 92.4 1.46667C88.7333 3.66667 84.7 5.5 79.9333 6.6C76.2667 2.56667 71.5 0 66 0C55.3667 0 46.5667 9.16667 46.5667 20.9C46.5667 22.3667 46.5667 24.2 46.9333 25.6667C30.8 24.9333 16.5 16.5 6.96667 4.03333C5.13334 6.96666 4.4 10.6333 4.4 14.6667C4.4 22 7.7 28.2333 12.8333 31.9C9.53333 31.9 6.6 30.8 4.03333 29.3333V29.7C4.03333 39.6 10.6333 48.0333 19.4333 50.2333C17.9667 50.6 16.1333 50.9667 14.3 50.9667C13.2 50.9667 11.7333 50.9667 10.6333 50.6C13.2 59.0333 20.1667 64.9 28.6 64.9C22 70.4 13.5667 73.7 4.76667 73.7C3.3 73.7 1.83333 73.7 0 73.3333C8.43333 79.2 18.7 82.8667 29.7 82.8667C65.2667 82.8667 84.7 51.3333 84.7 23.8333C84.7 23.1 84.7 22 84.7 21.2667C89.1 17.6 92.4 13.9333 94.9667 9.53333Z" fill="white"/>
</svg>
